<svg width="30" height="30" viewBox="0 0 256 256" version="1.1" xmlns="http://www.w3.org/2000/svg">
 <path d="m128 4.23e-4a128 128 0 0 0-100.77 49.316c15.612 4.1711 26.663 7.7559 29.972 8.8677 0.05186-2.0305 0.3886-20.191 0.3886-20.191s0.04275-0.41571 0.26458-0.63246c0.28568-0.27898 0.69866-0.19473 0.69866-0.19473 4.1063 0.59478 91.754 13.587 128.7 35.115 4.5624 2.6691 6.8144 5.5069 9.6283 8.3839 10.212 10.562 23.707 54.48 25.156 63.537 0.0569 0.35581-0.38277 0.74232-0.57052 0.88878h-5e-3c-1.0492 0.81873-2.1919 1.67-3.3362 2.4308-8.7418 5.865-28.881 19.963-54.719 17.661-23.209-2.0532-53.531-15.366-90.086-39.452 3.5941 8.415 7.1353 16.856 10.678 25.292 5.2937 2.7495 56.389 28.786 81.607 28.277 20.311-0.42312 42.035-10.33 50.725-15.561 0 0 1.9098-1.1506 2.7409-0.50842 0.9091 0.70231 0.65759 1.7784 0.44234 2.8774-0.53465 2.4947-1.7518 7.0462-2.5796 9.2066l-0.69867 1.7611c-0.99481 2.6653-1.9497 5.1426-3.791 6.6683-5.1195 4.6552-13.291 8.3589-26.094 13.924-19.791 8.6571-51.899 14.163-81.71 13.973-10.677-0.2377-20.993-1.4224-30.051-2.4805-18.589-2.0987-33.714-3.8013-42.937 2.8691a128 128 0 0 0 96.345 43.97 128 128 0 0 0 128-128 128 128 0 0 0-128-128zm28.55 74.269c-10.019-0.3194-19.572 3.2161-26.896 10.054-7.3209 6.8154-11.51 16.107-11.881 26.119-0.69215 20.655 15.524 38.058 36.161 38.819 10.064 0.33782 19.597-3.2 26.921-10.079 7.3022-6.7943 11.492-16.086 11.881-26.099 0.70908-20.636-15.527-38.076-36.186-38.815zm-0.31419 11.046c14.438 0.51223 25.741 12.641 25.255 27.074-0.22288 6.9606-3.1592 13.413-8.2599 18.198-5.1081 4.7629-11.784 7.2396-18.789 7.0279-14.404-0.53128-25.708-12.674-25.222-27.111 0.21167-6.9867 3.2062-13.44 8.2847-18.203 5.0783-4.7629 11.723-7.239 18.732-6.9864zm4.2788 13.126c-6.4149 0-11.596 3.4523-11.596 7.7474 0 4.2545 5.1812 7.7266 11.596 7.7266 6.4111 0 11.613-3.4724 11.613-7.7266 0-4.2951-5.1979-7.7474-11.613-7.7474z" fill="#73ba25"/>
</svg>
